<svg xmlns="http://www.w3.org/2000/svg" width="69.513" height="67.652" viewBox="0 0 69.513 67.652">
  <g id="Groupe_7" data-name="Groupe 7" transform="translate(0 0)">
    <path id="Tracé_5" data-name="Tracé 5" d="M103.91,350.322a7.257,7.257,0,1,0,7.257,7.257A7.257,7.257,0,0,0,103.91,350.322Zm0,11.289a4.032,4.032,0,1,1,4.032-4.032A4.032,4.032,0,0,1,103.91,361.611Z" transform="translate(-81.736 -297.184)" fill="#455a64"/>
    <path id="Tracé_6" data-name="Tracé 6" d="M302.441,350.322a7.257,7.257,0,1,0,7.257,7.257A7.257,7.257,0,0,0,302.441,350.322Zm0,11.289a4.032,4.032,0,1,1,4.032-4.032A4.032,4.032,0,0,1,302.441,361.611Z" transform="translate(-249.626 -297.184)" fill="#455a64"/>
    <path id="Tracé_7" data-name="Tracé 7" d="M69.184,16.833a2.016,2.016,0,0,0-1.29-.645L15.4,15.462,13.95,11.027a7.418,7.418,0,0,0-6.935-5h-5.4a1.613,1.613,0,1,0,0,3.225h5.4a4.193,4.193,0,0,1,3.871,2.822L21.126,42.958l-.806,1.855a7.741,7.741,0,0,0,.726,7.015,7.5,7.5,0,0,0,6.048,3.387H58.46a1.613,1.613,0,0,0,0-3.225H27.093a4.112,4.112,0,0,1-3.387-1.935,4.435,4.435,0,0,1-.4-3.871l.645-1.451L57.9,41.184a8.87,8.87,0,0,0,7.66-6.773L69.426,18.2A1.371,1.371,0,0,0,69.184,16.833ZM62.411,33.685a5.483,5.483,0,0,1-4.919,4.274L23.948,41.426l-7.5-22.739,49.429.726Z" transform="translate(0 -6.028)" fill="#455a64"/>
  </g>
</svg>
